<?xml version="1.0" encoding="utf-8"?>
<!-- Generator: $$$/GeneralStr/196=Adobe Illustrator 27.6.0, SVG Export Plug-In . SVG Version: 6.00 Build 0)  -->
<svg version="1.1" id="Calque_1" xmlns="http://www.w3.org/2000/svg" xmlns:xlink="http://www.w3.org/1999/xlink" x="0px" y="0px"
	 viewBox="0 0 24 24" style="enable-background:new 0 0 24 24;" xml:space="preserve">
<style type="text/css">
	.st0{clip-path:url(#SVGID_00000107552102646981031800000003106165240730804634_);}
	.st1{fill:#F0F0F0;}
	.st2{fill:#D80027;}
	.st3{fill:#0052B4;}
	.st4{clip-path:url(#SVGID_00000026879811561687253620000011121298109882943108_);}
	.st5{fill:none;stroke:#000000;stroke-width:2;stroke-linecap:round;stroke-linejoin:round;}
</style>
<g>
	<path d="M16.1,20.1c0.3,0,0.4,0.1,0.5,0.3c0.1,0.2,0,0.4-0.3,0.5c-5.5,0-3.2,0-8.8,0c0,0-0.1,0-0.1-0.1c-0.2-0.1-0.2-0.3-0.1-0.5
		c0.1-0.2,0.2-0.3,0.4-0.3c0.4,0,0.8,0,1.1,0c0.2,0,0.2,0,0.2-0.2c0-2.4,0-4.7,0-7.1c0-0.1,0-0.2,0-0.3c0-0.2,0.1-0.3,0.3-0.3
		c0.1,0,0.1-0.1,0.1-0.2c0-0.6,0-1.2,0-1.8c0-0.3,0.1-0.5,0.4-0.5c0.1,0,0.1-0.1,0.1-0.2c0-0.5,0-1,0-1.4c0.1-1.2,0.2-2.4,0.7-3.5
		c0.2-0.4,0.4-0.9,0.8-1.2c0.3-0.2,0.5-0.3,0.7,0c0.4,0.3,0.6,0.8,0.8,1.3c0.3,0.8,0.5,1.7,0.6,2.6c0.1,0.8,0.1,1.6,0.1,2.3
		c0,0.1,0,0.2,0.2,0.2c0.2,0,0.4,0.2,0.4,0.5c0,0.6,0,1.3,0,1.9c0,0.1,0,0.2,0.2,0.3c0.1,0,0.2,0.2,0.2,0.3c0,0.1,0,0.2,0,0.3
		c0,2.4,0,4.8,0,7.1c0,0.2,0.1,0.3,0.2,0.3L16.1,20.1L16.1,20.1z M14,16.6c0-1.1,0-2.2,0-3.3c0-0.2-0.1-0.2-0.2-0.2
		c-1.2,0-2.3,0-3.5,0C10,13,10,13,10,13.2c0,2.2,0,4.4,0,6.7c0,0.2,0,0.2,0.2,0.2c1.1,0,2.3,0,3.4,0c0.2,0,0.2,0,0.2-0.2
		C14,18.8,14,17.7,14,16.6L14,16.6z M12,12.1c0.5,0,0.9,0,1.4,0c0.1,0,0.2,0,0.2-0.2c0-0.5,0-0.9,0-1.4c0-0.1-0.1-0.2-0.2-0.2
		c-0.9,0-1.8,0-2.7,0c-0.1,0-0.2,0.1-0.2,0.2c0,0.4,0,0.9,0,1.3c0,0.1,0,0.2,0.2,0.2C11.1,12.1,11.6,12.1,12,12.1L12,12.1z M12,7.9
		c0.3,0,0.5,0,0.8,0c0.1,0,0.2,0,0.2-0.2c0-0.4-0.1-0.9-0.1-1.3c-0.1-0.7-0.3-1.4-0.7-2.1c0-0.1-0.1-0.2-0.2-0.2
		c-0.1,0-0.1,0.1-0.2,0.2c-0.6,1.1-0.7,2.2-0.8,3.4c0,0.1,0.1,0.2,0.2,0.2C11.5,7.9,11.7,7.9,12,7.9L12,7.9z M12,8.7
		c-0.3,0-0.6,0-0.9,0c-0.1,0-0.2,0-0.2,0.2c0,0.2,0,0.3,0,0.5c0,0.1,0,0.2,0.1,0.2c0.6,0,1.2,0,1.7,0c0.1,0,0.1,0,0.1-0.1
		c0-0.1,0-0.3,0-0.4c0-0.1,0-0.2-0.2-0.2C12.6,8.8,12.3,8.8,12,8.7L12,8.7z"/>
</g>
</svg>
