<?xml version="1.0" encoding="utf-8"?>
<!-- Generator: $$$/GeneralStr/196=Adobe Illustrator 27.6.0, SVG Export Plug-In . SVG Version: 6.00 Build 0)  -->
<svg version="1.1" id="Calque_1" xmlns="http://www.w3.org/2000/svg" xmlns:xlink="http://www.w3.org/1999/xlink" x="0px" y="0px"
	 viewBox="0 0 24 24" style="enable-background:new 0 0 24 24;" xml:space="preserve">
<style type="text/css">
	.st0{clip-path:url(#SVGID_00000137131022675475844540000008496843518043913366_);}
	.st1{fill:#F0F0F0;}
	.st2{fill:#D80027;}
	.st3{fill:#0052B4;}
	.st4{clip-path:url(#SVGID_00000022562005212829761600000007268892691927838355_);}
	.st5{fill:none;stroke:#000000;stroke-width:2;stroke-linecap:round;stroke-linejoin:round;}
</style>
<g>
	<defs>
		<rect id="SVGID_00000052075278364887627630000015086974678035803047_" x="3" y="3" width="18" height="18"/>
	</defs>
	<clipPath id="SVGID_00000121271112041917776300000012755963408054479016_">
		<use xlink:href="#SVGID_00000052075278364887627630000015086974678035803047_"  style="overflow:visible;"/>
	</clipPath>
	<g style="clip-path:url(#SVGID_00000121271112041917776300000012755963408054479016_);">
		<path class="st1" d="M12,21c5,0,9-4,9-9c0-5-4-9-9-9c-5,0-9,4-9,9C3,17,7,21,12,21z"/>
		<path class="st2" d="M11.6,12H21c0-0.8-0.1-1.6-0.3-2.3h-9.1V12z"/>
		<path class="st2" d="M11.6,7.3h8.1c-0.6-0.9-1.3-1.7-2.1-2.3h-6V7.3z"/>
		<path class="st2" d="M12,21c2.1,0,4.1-0.7,5.6-2H6.4C7.9,20.3,9.9,21,12,21z"/>
		<path class="st2" d="M4.3,16.7h15.4c0.4-0.7,0.8-1.5,1-2.3H3.3C3.5,15.2,3.9,16,4.3,16.7L4.3,16.7z"/>
		<path class="st3" d="M7.2,4.4H8L7.2,5l0.3,0.9L6.8,5.3L6,5.9l0.3-0.8C5.6,5.6,5,6.3,4.5,7h0.3L4.3,7.4C4.2,7.5,4.1,7.6,4.1,7.8
			l0.2,0.7L3.9,8.2C3.7,8.4,3.7,8.6,3.6,8.9l0.3,0.8h0.9L4,10.2l0.3,0.9l-0.8-0.6l-0.5,0.3C3,11.2,3,11.6,3,12h9c0-5,0-5.6,0-9
			C10.2,3,8.6,3.5,7.2,4.4L7.2,4.4z M7.5,11.1l-0.8-0.6L6,11.1l0.3-0.9L5.5,9.6h0.9l0.3-0.9L7,9.6H8l-0.8,0.6L7.5,11.1z M7.2,7.6
			l0.3,0.9L6.8,7.9L6,8.5l0.3-0.9L5.5,7h0.9l0.3-0.9L7,7H8L7.2,7.6z M10.7,11.1L10,10.5l-0.8,0.6l0.3-0.9L8.7,9.6h0.9L10,8.8
			l0.3,0.9h0.9l-0.8,0.6L10.7,11.1z M10.5,7.6l0.3,0.9L10,7.9L9.2,8.5l0.3-0.9L8.7,7h0.9L10,6.1L10.3,7h0.9L10.5,7.6z M10.5,5
			l0.3,0.9L10,5.3L9.2,5.9L9.5,5L8.7,4.4h0.9L10,3.5l0.3,0.9h0.9L10.5,5z"/>
	</g>
</g>
</svg>
