<?xml version="1.0" encoding="utf-8"?>
<!-- Generator: $$$/GeneralStr/196=Adobe Illustrator 27.6.0, SVG Export Plug-In . SVG Version: 6.00 Build 0)  -->
<svg version="1.1" id="Calque_1" xmlns="http://www.w3.org/2000/svg" xmlns:xlink="http://www.w3.org/1999/xlink" x="0px" y="0px"
	 viewBox="0 0 24 24" style="enable-background:new 0 0 24 24;" xml:space="preserve">
<style type="text/css">
	.st0{clip-path:url(#SVGID_00000089548625828900055580000009513247973500049597_);}
	.st1{fill:#F0F0F0;}
	.st2{fill:#D80027;}
	.st3{fill:#0052B4;}
	.st4{clip-path:url(#SVGID_00000145766749452343602390000010072814666353545874_);}
	.st5{fill:none;stroke:#000000;stroke-width:2;stroke-linecap:round;stroke-linejoin:round;}
</style>
<g>
	<defs>
		<rect id="SVGID_1_" x="3" y="3" width="18" height="18"/>
	</defs>
	<clipPath id="SVGID_00000138556096381243306350000011291283481617045179_">
		<use xlink:href="#SVGID_1_"  style="overflow:visible;"/>
	</clipPath>
	<g style="clip-path:url(#SVGID_00000138556096381243306350000011291283481617045179_);">
		<path class="st1" d="M12,21c5,0,9-4,9-9c0-5-4-9-9-9c-5,0-9,4-9,9C3,17,7,21,12,21z"/>
		<path class="st2" d="M21,12c0-3.9-2.4-7.2-5.9-8.4v16.9C18.6,19.2,21,15.9,21,12z"/>
		<path class="st3" d="M3,12c0,3.9,2.4,7.2,5.9,8.4V3.6C5.4,4.8,3,8.1,3,12z"/>
	</g>
</g>
</svg>
