<?xml version="1.0" encoding="utf-8"?>
<!-- Generator: $$$/GeneralStr/196=Adobe Illustrator 27.6.0, SVG Export Plug-In . SVG Version: 6.00 Build 0)  -->
<svg version="1.1" id="Calque_1" xmlns="http://www.w3.org/2000/svg" xmlns:xlink="http://www.w3.org/1999/xlink" x="0px" y="0px"
	 viewBox="0 0 24 24" style="enable-background:new 0 0 24 24;" xml:space="preserve">
<style type="text/css">
	.st0{clip-path:url(#SVGID_00000006691512730312856170000002548512247183491739_);}
	.st1{fill:#F0F0F0;}
	.st2{fill:#D80027;}
	.st3{fill:#0052B4;}
	.st4{clip-path:url(#SVGID_00000130648152530759452710000007100875466854588585_);}
	.st5{fill:none;stroke:#000000;stroke-width:2;stroke-linecap:round;stroke-linejoin:round;}
</style>
<g>
	<path d="M12,21c-1.1,0-2.3,0-3.4,0c-0.2,0-0.4-0.1-0.6-0.3c-0.2-0.3-0.5-0.5-0.8-0.8c-0.1-0.1-0.3-0.2-0.5-0.3
		c-0.6-0.1-1.2-0.3-1.8-0.5c-0.3-0.1-0.5-0.3-0.5-0.6c0-2.3,0-4.6,0-6.9c0-0.3,0.1-0.4,0.3-0.6c0.9-0.5,1.5-1.3,1.7-2.3
		c0.1-0.5,0-1,0-1.5C6.5,6.6,6.4,5.8,6.3,5.1c0-0.4,0-0.8-0.1-1.2C6.1,3.3,6.5,3,6.9,3C7.6,3,8.3,3,9,3c0.4,0,0.7,0.2,0.7,0.7
		c0.1,1.2,0.9,2.1,2,2.2c1.2,0.1,2.2-0.6,2.5-1.7c0.1-0.2,0.1-0.4,0.1-0.6c0-0.4,0.3-0.6,0.6-0.6c0.8,0,1.5,0,2.3,0
		c0.4,0,0.6,0.2,0.6,0.6c0,0.6-0.1,1.2-0.1,1.8c-0.1,0.8-0.1,1.7-0.2,2.5c-0.1,0.6,0,1.2,0.3,1.7c0.3,0.7,0.8,1.2,1.4,1.5
		c0.3,0.1,0.4,0.3,0.4,0.7c0,2.3,0,4.5,0,6.8c0,0.4-0.1,0.6-0.5,0.7c-0.6,0.2-1.3,0.3-1.9,0.5c-0.1,0-0.2,0.1-0.3,0.1
		c-0.3,0.3-0.6,0.6-0.9,0.9c-0.2,0.2-0.4,0.3-0.6,0.3C14.3,21,13.1,21,12,21L12,21L12,21z M12,19.8c1,0,2,0,3.1,0
		c0.1,0,0.2,0,0.3-0.1c0.3-0.3,0.5-0.5,0.8-0.8c0.1-0.1,0.3-0.2,0.5-0.3c0.5-0.1,1-0.3,1.6-0.4c0.2,0,0.2-0.1,0.2-0.3
		c0-1.9,0-3.8,0-5.7c0-0.2-0.1-0.2-0.2-0.3c-1-0.7-1.6-1.6-1.9-2.8c-0.2-0.8,0-1.5,0-2.3c0.1-0.8,0.1-1.7,0.2-2.5
		c0-0.1,0-0.1-0.1-0.1c-0.3,0-0.6,0-0.8,0c-0.1,0-0.2,0-0.2,0.2C14.8,6.9,11.7,8,9.7,6.2C9.1,5.7,8.8,5.1,8.6,4.4
		c0-0.1,0-0.2-0.2-0.2c-0.3,0-0.6,0-0.9,0c-0.1,0-0.1,0-0.1,0.1c0,0.2,0,0.3,0,0.5c0.1,0.8,0.1,1.6,0.2,2.3c0,0.5,0.1,1.1,0,1.6
		c-0.2,1.3-0.8,2.4-2,3.2c-0.1,0.1-0.1,0.1-0.1,0.2c0,1.9,0,3.9,0,5.8c0,0.1,0,0.2,0.2,0.2c0.4,0.1,0.8,0.2,1.2,0.3
		c0.4,0.1,0.8,0.2,1.1,0.6c0.2,0.2,0.4,0.4,0.6,0.6c0.1,0.1,0.2,0.1,0.3,0.1C10,19.8,11,19.8,12,19.8L12,19.8z"/>
	<path d="M16.1,13.8c0,1.2,0,2.4,0,3.7c0,0.5-0.2,0.7-0.7,0.7c-2.3,0-4.5,0-6.8,0c-0.5,0-0.7-0.2-0.7-0.7c0-2.4,0-4.8,0-7.2
		c0-0.8,0.5-1.4,1.3-1.4c1.8,0,3.6,0,5.4,0c0.9,0,1.4,0.7,1.3,1.4C16,11.4,16.1,12.6,16.1,13.8L16.1,13.8z M12,12.3L12,12.3
		c-0.9,0-1.8,0-2.7,0c-0.1,0-0.2,0-0.2,0.2c0,1.4,0,2.8,0,4.3c0,0.2,0,0.2,0.2,0.2c1.8,0,3.6,0,5.4,0c0.2,0,0.2,0,0.2-0.2
		c0-1.4,0-2.8,0-4.3c0-0.2,0-0.2-0.2-0.2C13.8,12.3,12.9,12.3,12,12.3L12,12.3z M12,11.1c0.9,0,1.8,0,2.7,0c0.2,0,0.2-0.1,0.2-0.2
		c0-0.2,0-0.5,0-0.7c0-0.2,0-0.2-0.2-0.2c-1.8,0-3.6,0-5.4,0c-0.2,0-0.2,0.1-0.2,0.2c0,0.2,0,0.4,0,0.6c0,0.3,0,0.3,0.3,0.3
		C10.3,11.1,11.1,11.1,12,11.1L12,11.1z"/>
</g>
</svg>
