<?xml version="1.0" encoding="utf-8"?>
<!-- Generator: $$$/GeneralStr/196=Adobe Illustrator 27.6.0, SVG Export Plug-In . SVG Version: 6.00 Build 0)  -->
<svg version="1.1" id="Calque_1" xmlns="http://www.w3.org/2000/svg" xmlns:xlink="http://www.w3.org/1999/xlink" x="0px" y="0px"
	 viewBox="0 0 24 24" style="enable-background:new 0 0 24 24;" xml:space="preserve">
<style type="text/css">
	.st0{clip-path:url(#SVGID_00000130638209661337069510000008894618989964611464_);}
	.st1{fill:#F0F0F0;}
	.st2{fill:#D80027;}
	.st3{fill:#0052B4;}
	.st4{clip-path:url(#SVGID_00000057135159932002385470000018122799952978521497_);}
	.st5{fill:none;stroke:#000000;stroke-width:2;stroke-linecap:round;stroke-linejoin:round;}
</style>
<g>
	<path d="M20.2,12.6c0,1.8-0.7,3.3-1.9,4.5c-1.3,1.4-2.9,2.2-4.7,2.4c-2.2,0.2-4.1-0.3-5.6-2c-0.2-0.3-0.4-0.5-0.6-0.8
		c-1.1-1.8-2.1-3.6-3.2-5.4c-0.8-1.3,0.1-2.9,1.5-3.2c0.3-0.1,0.3-0.1,0.1-0.3c-0.2-0.3-0.4-0.7-0.6-1c-0.9-1.4,0.1-3,1.4-3.3
		C7.3,3.4,8,3.5,8.6,4c0.1,0.1,0.1,0.1,0.2,0c0.4-0.5,0.9-0.7,1.4-0.8c0.9-0.2,1.7,0.2,2.2,1c0.3,0.6,0.7,1.2,1,1.8
		c0.1,0.1,0.1,0.2,0.3,0c0.7-0.8,1.7-1,2.6-0.6C16.7,5.5,17,5.7,17.2,6c0.8,1.4,1.6,2.7,2.4,4.1C20,11,20.2,11.7,20.2,12.6
		L20.2,12.6z M12.7,18.3c0.2,0,0.3,0,0.5,0c0.1,0,0.2,0,0.3,0c2.3-0.3,4-1.5,5-3.6c0.7-1.4,0.7-2.9-0.1-4.3
		c-0.7-1.2-1.4-2.5-2.1-3.7c-0.1-0.2-0.2-0.3-0.4-0.3c-0.4-0.1-0.9,0-1.2,0.3c-0.3,0.3-0.3,0.6,0,1c0.4,0.7,0.9,1.5,1.3,2.2
		c0.2,0.4,0.1,0.7-0.2,0.9c-0.1,0-0.1,0.1-0.2,0.1c-1.1,0.7-1.5,2-0.9,3c0.2,0.3,0,0.7-0.3,0.9c-0.3,0.2-0.7,0.1-0.9-0.3
		c-0.4-0.7-0.5-1.4-0.4-2.2c0.2-0.9,0.6-1.6,1.3-2.1c0.1-0.1,0.1-0.2,0.1-0.3c-1-1.8-2.1-3.5-3.1-5.3c-0.1-0.2-0.2-0.3-0.4-0.3
		c-0.5-0.2-1.1,0.1-1.3,0.6c-0.1,0.2,0,0.4,0.1,0.6c0.4,0.7,0.8,1.4,1.2,2.1c0.3,0.5,0.6,1,0.8,1.4c0.2,0.4,0,0.8-0.3,0.9
		c-0.3,0.1-0.6,0-0.8-0.3C9.7,8.3,8.8,6.7,7.9,5.2C7.7,4.9,7.5,4.8,7.2,4.8c-0.4,0-0.6,0.1-0.9,0.4C6.1,5.4,6.1,5.8,6.3,6.1
		c0.2,0.3,0.4,0.7,0.6,1c0.8,1.4,1.7,2.9,2.5,4.3c0.1,0.2,0.2,0.3,0.1,0.5c0,0.3-0.3,0.5-0.5,0.5c-0.3,0-0.5-0.1-0.7-0.3
		c-0.5-0.8-0.9-1.6-1.4-2.3C6.8,9.6,6.7,9.5,6.6,9.4c-0.4-0.2-0.9,0-1.2,0.3c-0.2,0.3-0.3,0.6-0.1,1.1c0.9,1.5,1.7,3,2.6,4.4
		c0.3,0.5,0.6,1.1,1,1.6C9.9,17.9,11.2,18.3,12.7,18.3L12.7,18.3z"/>
	<path d="M6,16.8c0.3,0,0.4,0.1,0.6,0.4c0.4,0.7,0.9,1.3,1.6,1.8c0.4,0.3,0.9,0.6,1.4,0.8c0.3,0.1,0.4,0.4,0.4,0.7
		c-0.1,0.4-0.5,0.7-0.9,0.5c-0.4-0.1-0.7-0.3-1-0.5c-1.1-0.7-2-1.5-2.6-2.6C5.2,17.3,5.5,16.8,6,16.8z"/>
	<path d="M15.4,3c1.3,0,2.4,0.5,3.3,1.3c0.3,0.3,0.3,0.7,0,0.9c-0.3,0.3-0.6,0.2-0.9,0c-0.9-0.8-1.9-1.1-3.1-0.8
		c-0.3,0.1-0.5,0-0.7-0.2c-0.3-0.3-0.1-0.9,0.3-1C14.6,3.1,15,3,15.4,3L15.4,3z"/>
</g>
</svg>
